<?xml version="1.0" encoding="UTF-8" standalone="no"?>
<!-- Generated by Microsoft Visio, SVG Export network_transit_basic_layout.svg Page-1 -->

<svg
   width="1045"
   height="580"
   viewBox="0 0 783.75076 434.99934"
   xml:space="preserve"
   color-interpolation-filters="sRGB"
   class="st21"
   version="1.1"
   id="svg390"
   sodipodi:docname="network_transit_basic_layout.svg"
   inkscape:version="1.2.1 (9c6d41e410, 2022-07-14)"
   xmlns:inkscape="http://www.inkscape.org/namespaces/inkscape"
   xmlns:sodipodi="http://sodipodi.sourceforge.net/DTD/sodipodi-0.dtd"
   xmlns:xlink="http://www.w3.org/1999/xlink"
   xmlns="http://www.w3.org/2000/svg"
   xmlns:svg="http://www.w3.org/2000/svg"
   xmlns:v="http://schemas.microsoft.com/visio/2003/SVGExtensions/"><sodipodi:namedview
   id="namedview392"
   pagecolor="#ffffff"
   bordercolor="#666666"
   borderopacity="1.0"
   inkscape:showpageshadow="2"
   inkscape:pageopacity="1"
   inkscape:pagecheckerboard="0"
   inkscape:deskcolor="#d1d1d1"
   inkscape:document-units="px"
   showgrid="false"
   inkscape:zoom="1.1469499"
   inkscape:cx="727.58191"
   inkscape:cy="316.49159"
   inkscape:window-width="1920"
   inkscape:window-height="1017"
   inkscape:window-x="1072"
   inkscape:window-y="573"
   inkscape:window-maximized="1"
   inkscape:current-layer="svg390" />
	<v:documentProperties
   v:langID="1033"
   v:viewMarkup="false" />

	<style
   type="text/css"
   id="style2">
	<![CDATA[
		.st1 {fill:#f5f4f2;stroke:#9e9892;stroke-linecap:round;stroke-linejoin:round;stroke-width:1}
		.st2 {fill:#000000;font-family:Oracle Sans;font-size:0.75em;font-weight:bold}
		.st3 {marker-end:url(#mrkr3-15);marker-start:url(#mrkr3-13);stroke:#000000;stroke-dasharray:3,3;stroke-linecap:round;stroke-linejoin:round;stroke-width:1}
		.st4 {fill:#000000;fill-opacity:1;stroke:#000000;stroke-opacity:1;stroke-width:0.28409090909091}
		.st5 {fill:none;stroke:none;stroke-width:0.25}
		.st6 {fill:#312d2a;font-family:Oracle Sans Tab;font-size:0.666664em}
		.st7 {font-size:1em}
		.st8 {fill:#ffffff;stroke:none;stroke-linecap:butt;stroke-width:18.8571}
		.st9 {fill:#2c5967;stroke:none;stroke-linecap:butt;stroke-width:18.8571}
		.st10 {fill:#ffffff;stroke:none;stroke-linecap:butt;stroke-width:14.5714}
		.st11 {fill:#2c5967;stroke:none;stroke-linecap:butt;stroke-width:14.5714}
		.st12 {marker-end:url(#mrkr3-15);marker-start:url(#mrkr3-13);stroke:#000000;stroke-linecap:round;stroke-linejoin:round;stroke-width:1}
		.st13 {fill:#ffffff;stroke:none;stroke-linecap:butt}
		.st14 {fill:#000000;font-family:Oracle Sans;font-size:0.666664em}
		.st15 {fill:none;stroke:#ae562c;stroke-dasharray:3,3;stroke-width:1}
		.st16 {fill:#ae562c;font-family:Oracle Sans;font-size:0.75em;font-weight:bold}
		.st17 {fill:#ffffff;stroke:none;stroke-linecap:round;stroke-linejoin:round;stroke-width:0.75}
		.st18 {fill:#ffffff;stroke:none;stroke-linecap:butt;stroke-width:14.069}
		.st19 {fill:#bb501c;stroke:none;stroke-linecap:butt;stroke-width:14.069}
		.st20 {fill:#ffffff;stroke:none;stroke-linecap:butt;stroke-width:7.2}
		.st21 {fill:none;fill-rule:evenodd;font-size:12px;overflow:visible;stroke-linecap:square;stroke-miterlimit:3}
	]]>
	</style>

	<defs
   id="Markers">
		<g
   id="lend3">
			<path
   d="M 2,1 0,0 2,-1"
   style="fill:none;stroke-linecap:round;stroke-linejoin:round"
   id="path4" />
		</g>
		<marker
   id="mrkr3-13"
   class="st4"
   v:arrowType="3"
   v:arrowSize="2"
   orient="auto"
   markerUnits="strokeWidth"
   overflow="visible">
			<use
   xlink:href="#lend3"
   transform="scale(3.52)"
   id="use7" />
		</marker>
		<marker
   id="mrkr3-15"
   class="st4"
   v:arrowType="3"
   v:arrowSize="2"
   orient="auto"
   markerUnits="strokeWidth"
   overflow="visible">
			<use
   xlink:href="#lend3"
   transform="scale(-3.52)"
   id="use10" />
		</marker>
	</defs><rect
   style="fill:#fcfbfa;stroke-width:1.16412;stroke-miterlimit:3"
   id="rect1103"
   width="783.75073"
   height="435.00043"
   x="0"
   y="-0.00051419379" />
	<g
   v:mID="0"
   v:index="1"
   v:groupContext="foregroundPage"
   id="g388"
   transform="matrix(1.1167965,0,0,1.1167965,18.750018,18.749441)">
		<title
   id="title14">Page-1</title>
		<v:pageProperties
   v:drawingScale="1"
   v:pageScale="1"
   v:drawingUnits="19"
   v:shadowOffsetX="9"
   v:shadowOffsetY="-9" />
		<v:layer
   v:name="Content"
   v:index="0"
   v:snap="false"
   v:glue="false" />
		<v:layer
   v:name="Connector"
   v:index="1" />
		<g
   id="shape65-1"
   v:mID="65"
   v:groupContext="shape"
   v:layerMember="0"
   transform="translate(190.77,-0.999991)">
			<title
   id="title16">Sheet.65</title>
			<desc
   id="desc18">OCI Region</desc>
			<v:textBlock
   v:margins="rect(4,4,4,4)"
   v:verticalAlign="0" />
			<v:textRect
   cx="238.729"
   cy="179.228"
   width="477.46"
   height="355.456" />
			<path
   d="M 0,7.87 C 0,4.46 0.83,1.5 1.78,1.5 h 473.94 c 0.95,0 1.74,2.96 1.74,6.37 v 342.87 c 0,3.4 -0.79,6.22 -1.74,6.22 H 1.78 C 0.83,356.96 0,354.14 0,350.74 Z"
   class="st1"
   id="path20" />
			<text
   x="214.88"
   y="13.6"
   class="st2"
   v:langID="1033"
   id="text22"><v:paragraph
   v:horizAlign="1" /><v:tabList />OCI Region</text>		</g>
		<g
   id="shape70-4"
   v:mID="70"
   v:groupContext="shape"
   v:layerMember="0"
   transform="translate(0.5,-0.5)">
			<title
   id="title25">Sheet.70</title>
			<desc
   id="desc27">On-Premises</desc>
			<v:textBlock
   v:margins="rect(4,4,4,4)"
   v:verticalAlign="0" />
			<v:textRect
   cx="54.3852"
   cy="179.228"
   width="108.78"
   height="355.456" />
			<path
   d="M 0,7.87 C 0,4.46 0.19,1.5 0.4,1.5 h 107.98 c 0.21,0 0.39,2.96 0.39,6.37 v 342.87 c 0,3.4 -0.18,6.22 -0.39,6.22 H 0.4 c -0.21,0 -0.4,-2.82 -0.4,-6.22 z"
   class="st1"
   id="path29" />
			<text
   x="26.620001"
   y="13.6"
   class="st2"
   v:langID="1033"
   id="text31"><v:paragraph
   v:horizAlign="1" /><v:tabList />On-Premises</text>		</g>
		<g
   id="shape546-7"
   v:mID="546"
   v:groupContext="shape"
   v:layerMember="1"
   transform="translate(388.27,-61.1032)">
			<title
   id="title34">Sheet.546</title>
			<path
   d="M 0,356.96 H -95.56 V 243.13 H -288"
   class="st3"
   id="path36" />
		</g>
		<g
   id="group129-16"
   transform="translate(23.7704,-43.1032)"
   v:mID="129"
   v:groupContext="group"
   v:layerMember="0">
			<title
   id="title39">On-Premises Data Center</title>
			<g
   id="shape130-17"
   v:mID="130"
   v:groupContext="shape"
   v:layerMember="0">
				<title
   id="title41">Sheet.130</title>
				<desc
   id="desc43">On-premises Data Center</desc>
				<v:textBlock
   v:margins="rect(4,4,4,4)" />
				<v:textRect
   cx="29.25"
   cy="342.456"
   width="58.51"
   height="29.0001" />
				<rect
   x="0"
   y="327.95599"
   width="58.5"
   height="29.000099"
   class="st5"
   id="rect45" />
				<text
   x="5.77"
   y="335.26001"
   class="st6"
   v:langID="1033"
   id="text51"><v:paragraph
   v:horizAlign="1"
   v:bulletSize="0.166667" /><v:tabList />On-premises <v:newlineChar /><tspan
   x="20.84"
   dy="1.2em"
   class="st7"
   id="tspan47">Data<v:newlineChar /></tspan><tspan
   x="17.25"
   dy="1.2em"
   class="st7"
   id="tspan49">Center</tspan></text>			</g>
			<g
   id="shape131-22"
   v:mID="131"
   v:groupContext="shape"
   v:layerMember="0"
   transform="translate(19.6661,-28.5033)">
				<title
   id="title54">Sheet.131</title>
				<path
   d="m 0,355.2 a 1.7558,1.7558 -180 0 0 1.76,1.76 h 15.65 a 1.7558,1.7558 -180 0 0 1.76,-1.76 v -31.6 a 1.7558,1.7558 -180 0 0 -1.76,-1.76 H 1.76 A 1.7558,1.7558 -180 0 0 0,323.6 Z"
   class="st8"
   id="path56" />
			</g>
			<g
   id="shape132-24"
   v:mID="132"
   v:groupContext="shape"
   v:layerMember="0"
   transform="translate(19.2379,-28.0751)">
				<title
   id="title59">Sheet.132</title>
				<path
   d="m 17.84,321.84 a 1.33609,1.33609 0 0 1 1.33,1.33 v 31.6 a 1.33609,1.33609 0 0 1 -1.33,1.33 H 2.18 a 1.33609,1.33609 0 0 1 -1.32,-1.33 v -31.6 a 1.33609,1.33609 0 0 1 1.32,-1.33 z m 0,-0.86 H 2.18 A 2.18399,2.18399 -180 0 0 0,323.17 v 31.6 a 2.18399,2.18399 -180 0 0 2.18,2.19 h 15.66 a 2.18399,2.18399 -180 0 0 2.18,-2.19 v -31.6 a 2.18399,2.18399 -180 0 0 -2.18,-2.19 z"
   class="st8"
   id="path61" />
			</g>
			<g
   id="shape133-26"
   v:mID="133"
   v:groupContext="shape"
   v:layerMember="0"
   transform="translate(20.0944,-28.9315)">
				<title
   id="title64">Sheet.133</title>
				<path
   d="M 16.98,322.7 H 1.33 A 1.33609,1.33609 -180 0 0 0,324.03 v 31.6 a 1.33609,1.33609 -180 0 0 1.33,1.33 h 15.65 a 1.33609,1.33609 -180 0 0 1.33,-1.33 v -31.6 a 1.33609,1.33609 -180 0 0 -1.33,-1.33 z m 0.15,32.93 a 0.154164,0.154164 0 0 1 -0.1456,0.1456 L 1.33,355.77 A 0.154164,0.154164 0 0 1 1.1844,355.6244 L 1.18,324.03 a 0.154164,0.154164 0 0 1 0.1456,-0.1456 L 16.98,323.88 a 0.154164,0.154164 0 0 1 0.1456,0.1456 z"
   class="st9"
   id="path66" />
			</g>
			<g
   id="shape134-28"
   v:mID="134"
   v:groupContext="shape"
   v:layerMember="0"
   transform="translate(22.1584,-55.8075)">
				<title
   id="title69">Sheet.134</title>
				<path
   d="m 0,356.96 h 14.21 v -5.32 H 0 Z m 1.18,-4.14 H 13 v 2.95 H 1.18 Z"
   class="st9"
   id="path71" />
			</g>
			<g
   id="shape135-30"
   v:mID="135"
   v:groupContext="shape"
   v:layerMember="0"
   transform="translate(33.087,-57.8716)">
				<title
   id="title74">Sheet.135</title>
				<circle
   cx="0.59096301"
   cy="356.36499"
   class="st9"
   id="ellipse76"
   r="0.59096301" />
			</g>
			<g
   id="shape136-32"
   v:mID="136"
   v:groupContext="shape"
   v:layerMember="0"
   transform="translate(22.1584,-49.6067)">
				<title
   id="title79">Sheet.136</title>
				<path
   d="m 0,356.96 h 14.21 v -5.31 H 0 Z m 1.18,-4.17 H 13 v 2.96 H 1.18 Z"
   class="st9"
   id="path81" />
			</g>
			<g
   id="shape137-34"
   v:mID="137"
   v:groupContext="shape"
   v:layerMember="0"
   transform="translate(33.087,-51.6707)">
				<title
   id="title84">Sheet.137</title>
				<circle
   cx="0.59096301"
   cy="356.36499"
   class="st9"
   id="ellipse86"
   r="0.59096301" />
			</g>
			<g
   id="shape138-36"
   v:mID="138"
   v:groupContext="shape"
   v:layerMember="0"
   transform="translate(22.1584,-43.4058)">
				<title
   id="title89">Sheet.138</title>
				<path
   d="m 0,356.96 h 14.21 v -5.31 H 0 Z m 1.18,-4.13 H 13 v 2.94 H 1.18 Z"
   class="st9"
   id="path91" />
			</g>
			<g
   id="shape139-38"
   v:mID="139"
   v:groupContext="shape"
   v:layerMember="0"
   transform="translate(33.087,-45.4699)">
				<title
   id="title94">Sheet.139</title>
				<circle
   cx="0.59096301"
   cy="356.36499"
   class="st9"
   id="ellipse96"
   r="0.59096301" />
			</g>
			<g
   id="shape140-40"
   v:mID="140"
   v:groupContext="shape"
   v:layerMember="0"
   transform="translate(22.1584,-37.205)">
				<title
   id="title99">Sheet.140</title>
				<path
   d="m 0,356.96 h 14.21 v -5.31 H 0 Z m 1.18,-4.13 H 13 v 2.98 H 1.18 Z"
   class="st9"
   id="path101" />
			</g>
			<g
   id="shape141-42"
   v:mID="141"
   v:groupContext="shape"
   v:layerMember="0"
   transform="translate(33.087,-39.2691)">
				<title
   id="title104">Sheet.141</title>
				<circle
   cx="0.59096301"
   cy="356.36499"
   class="st9"
   id="ellipse106"
   r="0.59096301" />
			</g>
			<g
   id="shape142-44"
   v:mID="142"
   v:groupContext="shape"
   v:layerMember="0"
   transform="translate(22.1584,-30.9956)">
				<title
   id="title109">Sheet.142</title>
				<path
   d="m 0,356.96 h 14.21 v -5.32 H 0 Z m 1.18,-4.14 H 13 v 2.95 H 1.18 Z"
   class="st9"
   id="path111" />
			</g>
			<g
   id="shape143-46"
   v:mID="143"
   v:groupContext="shape"
   v:layerMember="0"
   transform="translate(33.087,-33.0683)">
				<title
   id="title114">Sheet.143</title>
				<circle
   cx="0.59096301"
   cy="356.36499"
   class="st9"
   id="ellipse116"
   r="0.59096301" />
			</g>
		</g>
		<g
   id="group144-48"
   transform="translate(44.5513,-133.103)"
   v:mID="144"
   v:groupContext="group"
   v:layerMember="0">
			<title
   id="title120">Customer Premises Equipment   (CPE)</title>
			<g
   id="group145-49"
   transform="translate(10.9949,-36.0208)"
   v:mID="145"
   v:groupContext="group"
   v:layerMember="0">
				<title
   id="title122">Customer Premises Equipment</title>
				<g
   id="shape146-50"
   v:mID="146"
   v:groupContext="shape"
   v:layerMember="0"
   transform="translate(0.535467,-0.535467)">
					<title
   id="title124">Sheet.146</title>
					<path
   d="m 0,354.63 a 2.32398,2.32398 -180 0 0 2.32,2.33 h 39.26 a 2.32398,2.32398 -180 0 0 2.33,-2.33 v -39.26 a 2.32398,2.32398 -180 0 0 -2.33,-2.32 H 2.32 A 2.32398,2.32398 -180 0 0 0,315.37 Z"
   class="st10"
   id="path126" />
				</g>
				<g
   id="shape147-52"
   v:mID="147"
   v:groupContext="shape"
   v:layerMember="0">
					<title
   id="title129">Sheet.147</title>
					<path
   d="m 42.12,313.05 a 1.78846,1.78846 0 0 1 1.79,1.79 v 39.26 a 1.78846,1.78846 0 0 1 -1.79,1.79 H 2.86 A 1.78846,1.78846 0 0 1 1.07,354.1 v -39.26 a 1.78846,1.78846 0 0 1 1.79,-1.79 z m 0,-1.07 H 2.86 A 2.8701,2.8701 -180 0 0 0,314.84 v 39.26 a 2.8701,2.8701 -180 0 0 2.86,2.86 h 39.26 a 2.8701,2.8701 -180 0 0 2.86,-2.86 v -39.26 a 2.8701,2.8701 -180 0 0 -2.86,-2.86 z"
   class="st10"
   id="path131" />
				</g>
				<g
   id="shape148-54"
   v:mID="148"
   v:groupContext="shape"
   v:layerMember="0"
   transform="translate(1.07093,-1.07093)">
					<title
   id="title134">Sheet.148</title>
					<path
   d="M 41.05,314.12 H 1.79 A 1.78846,1.78846 -180 0 0 0,315.91 v 39.26 a 1.78846,1.78846 -180 0 0 1.79,1.79 h 39.26 a 1.78846,1.78846 -180 0 0 1.79,-1.79 v -39.26 a 1.78846,1.78846 -180 0 0 -1.79,-1.79 z m 0.2,41.05 a 0.214187,0.214187 0 0 1 -0.203478,0.20348 L 1.79,355.37 A 0.214187,0.214187 0 0 1 1.586522,355.16652 L 1.58,315.91 a 0.214187,0.214187 0 0 1 0.203478,-0.20348 L 41.05,315.7 a 0.214187,0.214187 0 0 1 0.203478,0.20348 z"
   class="st11"
   id="path136" />
				</g>
				<g
   id="shape149-56"
   v:mID="149"
   v:groupContext="shape"
   v:layerMember="0"
   transform="translate(9.30564,-5.42964)">
					<title
   id="title139">Sheet.149</title>
					<path
   d="M 13.18,321.25 A 18.645,18.645 -180 1 0 31.83,339.9 18.6664,18.6664 -180 0 0 13.18,321.25 Z m 0,35.71 A 17.06,17.06 0 1 1 30.24,339.9 17.135,17.135 0 0 1 13.18,356.96 Z"
   class="st11"
   id="path141" />
				</g>
				<g
   id="shape150-58"
   v:mID="150"
   v:groupContext="shape"
   v:layerMember="0"
   transform="translate(18.163,-8.67457)">
					<title
   id="title144">Sheet.150</title>
					<path
   d="m 5.12,353.91 v -21.35 l 2.42,2.42 1.11,-1.12 -4.32,-4.33 -4.33,4.33 1.11,1.12 2.42,-2.42 v 21.35 l -2.42,-2.4 -1.11,1.12 4.33,4.33 4.32,-4.33 -1.11,-1.12 z"
   class="st11"
   id="path146" />
				</g>
				<g
   id="shape151-60"
   v:mID="151"
   v:groupContext="shape"
   v:layerMember="0"
   transform="translate(23.3464,-18.163)">
					<title
   id="title149">Sheet.151</title>
					<path
   d="M 5.45,349.42 4.34,348.3 0,352.63 l 4.34,4.33 1.11,-1.12 -2.41,-2.42 h 9.78 v -1.58 H 3.04 Z"
   class="st11"
   id="path151" />
				</g>
				<g
   id="shape152-62"
   v:mID="152"
   v:groupContext="shape"
   v:layerMember="0"
   transform="translate(8.80308,-18.163)">
					<title
   id="title154">Sheet.152</title>
					<path
   d="m 8.49,348.3 -1.11,1.12 2.41,2.42 H 0 v 1.58 h 9.79 l -2.41,2.42 1.11,1.12 4.34,-4.33 z"
   class="st11"
   id="path156" />
				</g>
			</g>
			<g
   id="shape153-64"
   v:mID="153"
   v:groupContext="shape"
   v:layerMember="0">
				<title
   id="title160">Sheet.153</title>
				<desc
   id="desc162">Customer Premises Equipment</desc>
				<v:textBlock
   v:margins="rect(4,4,4,4)" />
				<v:textRect
   cx="33.4845"
   cy="338.84"
   width="66.97"
   height="36.2333" />
				<rect
   x="0"
   y="320.72299"
   width="66.969101"
   height="36.233299"
   class="st5"
   id="rect164" />
				<text
   x="15.84"
   y="331.64001"
   class="st6"
   v:langID="1033"
   id="text170"><v:paragraph
   v:horizAlign="1"
   v:bulletSize="0.166667" /><v:tabList />Customer<v:newlineChar /><tspan
   x="17"
   dy="1.2em"
   class="st7"
   id="tspan166">Premises<v:newlineChar /></tspan><tspan
   x="13.6"
   dy="1.2em"
   class="st7"
   id="tspan168">Equipment </tspan> </text>			</g>
		</g>
		<g
   id="shape156-69"
   v:mID="156"
   v:groupContext="shape"
   v:layerMember="1"
   transform="translate(100.77,-183.403)">
			<title
   id="title174">Sheet.156</title>
			<desc
   id="desc176">Site-to-Site VPN or Fastconnect</desc>
			<v:textBlock
   v:margins="rect(4,4,4,4)" />
			<v:textRect
   cx="54"
   cy="347.956"
   width="70.82"
   height="27.2035" />
			<path
   d="M 0,347.96 H 108"
   class="st12"
   id="path178" />
			<rect
   v:rectContext="textBkgnd"
   x="24.552099"
   y="338.35699"
   width="58.895802"
   height="19.199699"
   class="st13"
   id="rect180" />
			<text
   x="24.549999"
   y="345.56"
   class="st14"
   v:langID="1033"
   id="text184"><v:paragraph
   v:horizAlign="1" /><v:tabList />Site-to-Site VPN <v:lf /><tspan
   x="27.23"
   dy="1.2em"
   class="st7"
   id="tspan182">or FastConnect</tspan></text>		</g>
		<g
   id="shape320-79"
   v:mID="320"
   v:groupContext="shape"
   v:layerMember="0"
   transform="translate(469.27,-150.133)">
			<title
   id="title187">Sheet.320</title>
			<desc
   id="desc189">VCN-2 (Spoke)</desc>
			<v:textBlock
   v:margins="rect(4,4,4,4)"
   v:verticalAlign="0" />
			<v:textRect
   cx="73.3127"
   cy="316.456"
   width="146.63"
   height="81" />
			<path
   d="m 0,356.96 h 146.63 v -81 H 0 Z"
   class="st15"
   id="path191" />
			<text
   x="4"
   y="288.06"
   class="st16"
   v:langID="1033"
   id="text193"><v:paragraph /><v:tabList />VCN-2 (Spoke)</text>		</g>
		<g
   id="group321-82"
   transform="translate(602.914,-143.074)"
   v:mID="321"
   v:groupContext="group"
   v:layerMember="0">
			<title
   id="title196">Sheet.321</title>
			<g
   id="shape322-83"
   v:mID="322"
   v:groupContext="shape"
   v:layerMember="0"
   transform="translate(0.0434423,-0.191193)">
				<title
   id="title198">Sheet.322</title>
				<path
   d="m 9.29,339.57 c 1.28,0 2.34,1.06 2.34,2.33 0,0.4 -0.1,0.77 -0.32,1.12 l 2.75,1.98 c 0.43,-0.45 1.01,-0.71 1.71,-0.71 1.28,0 2.35,1.06 2.35,2.33 0,1.27 -1.07,2.33 -2.35,2.33 -0.13,0 -0.29,0 -0.43,-0.05 l -1.07,3.18 c 0.78,0.4 1.31,1.19 1.31,2.12 0,1.27 -1.07,2.33 -2.35,2.33 -1.17,0 -2.16,-0.87 -2.34,-2.01 H 7.52 c -0.16,1.14 -1.14,2.01 -2.34,2.01 -1.28,0 -2.35,-1.06 -2.35,-2.33 0,-0.93 0.56,-1.72 1.33,-2.12 L 3.2,348.9 c -0.1,0.05 -0.29,0.05 -0.43,0.05 -1.28,0 -2.34,-1.06 -2.34,-2.33 0,-1.27 1.06,-2.33 2.34,-2.33 0.7,0 1.29,0.29 1.71,0.71 l 2.75,-1.98 c -0.19,-0.35 -0.29,-0.72 -0.29,-1.12 0,-1.27 1.06,-2.33 2.35,-2.33 z m 0,-0.42 c -1.55,0 -2.78,1.24 -2.78,2.75 0,0.35 0.03,0.69 0.16,0.98 l -2.19,1.57 c -0.45,-0.37 -1.09,-0.59 -1.71,-0.59 -1.52,0 -2.77,1.22 -2.77,2.76 0,1.54 1.25,2.76 2.77,2.76 0.06,0 0.11,0 0.14,0 l 0.83,2.54 c -0.78,0.5 -1.26,1.35 -1.26,2.28 0,1.54 1.26,2.76 2.78,2.76 1.25,0 2.34,-0.85 2.69,-2.02 h 2.7 c 0.34,1.17 1.41,2.02 2.69,2.02 1.52,0 2.78,-1.22 2.78,-2.76 0,-0.93 -0.48,-1.78 -1.26,-2.28 l 0.83,-2.54 c 0.03,0 0.08,0 0.11,0 1.54,0 2.77,-1.22 2.77,-2.76 0,-1.54 -1.23,-2.76 -2.77,-2.76 -0.65,0 -1.23,0.22 -1.74,0.59 l -2.19,-1.57 c 0.14,-0.29 0.19,-0.63 0.19,-0.98 0.03,-1.51 -1.25,-2.75 -2.77,-2.75 z"
   class="st17"
   id="path200" />
			</g>
			<g
   id="group323-85"
   v:mID="323"
   v:groupContext="group"
   v:layerMember="0">
				<title
   id="title203">VCN</title>
				<g
   id="group324-86"
   v:mID="324"
   v:groupContext="group"
   v:layerMember="0">
					<title
   id="title205">Sheet.324</title>
					<g
   id="shape325-87"
   v:mID="325"
   v:groupContext="shape"
   v:layerMember="0"
   transform="translate(0.213948,-0.213948)">
						<title
   id="title207">Sheet.325</title>
						<path
   d="m 13.14,356.96 c -1.2,0 -2.27,-0.86 -2.53,-2.06 H 7.57 c -0.25,1.16 -1.28,2.06 -2.52,2.06 -1.41,0 -2.57,-1.16 -2.57,-2.57 0,-0.9 0.52,-1.76 1.29,-2.23 L 2.82,349.3 c -0.08,0 -0.17,0 -0.25,0 -1.41,0 -2.57,-1.16 -2.57,-2.57 0,-1.41 1.16,-2.57 2.57,-2.57 0.64,0 1.24,0.22 1.71,0.69 l 2.48,-1.8 c -0.13,-0.34 -0.21,-0.68 -0.21,-1.07 0,-1.41 1.15,-2.57 2.56,-2.57 1.42,0 2.57,1.16 2.57,2.57 0,0.34 -0.08,0.73 -0.21,1.07 l 2.44,1.8 c 0.47,-0.43 1.07,-0.69 1.71,-0.69 1.41,0 2.57,1.16 2.57,2.57 0,1.41 -1.16,2.57 -2.57,2.57 -0.09,0 -0.17,0 -0.26,0 l -0.94,2.86 c 0.77,0.47 1.28,1.33 1.28,2.23 0,1.41 -1.15,2.57 -2.56,2.57 z"
   class="st18"
   id="path209" />
					</g>
					<g
   id="shape326-89"
   v:mID="326"
   v:groupContext="shape"
   v:layerMember="0">
						<title
   id="title212">Sheet.326</title>
						<path
   d="m 9.29,339.41 c 1.28,0 2.35,1.07 2.35,2.36 0,0.38 -0.09,0.77 -0.3,1.11 l 2.74,2.01 c 0.43,-0.47 1.02,-0.73 1.71,-0.73 1.28,0 2.35,1.07 2.35,2.36 0,1.28 -1.07,2.35 -2.35,2.35 -0.13,0 -0.3,0 -0.43,-0.04 l -1.07,3.21 c 0.77,0.38 1.33,1.19 1.33,2.14 0,1.28 -1.07,2.35 -2.36,2.35 -1.19,0 -2.18,-0.9 -2.35,-2.06 H 7.53 c -0.17,1.16 -1.15,2.06 -2.35,2.06 -1.29,0 -2.36,-1.07 -2.36,-2.35 0,-0.95 0.56,-1.76 1.33,-2.14 l -0.94,-3.21 c -0.13,0.04 -0.3,0.04 -0.43,0.04 -1.28,0 -2.35,-1.07 -2.35,-2.35 0,-1.29 1.07,-2.36 2.35,-2.36 0.69,0 1.29,0.3 1.71,0.73 l 2.74,-2.01 c -0.17,-0.34 -0.3,-0.73 -0.3,-1.11 0,-1.29 1.07,-2.36 2.36,-2.36 z m 0,-0.43 c -1.55,0 -2.79,1.25 -2.79,2.79 0,0.34 0.05,0.68 0.18,0.98 l -2.19,1.58 c -0.47,-0.38 -1.11,-0.6 -1.71,-0.6 -1.54,0 -2.78,1.25 -2.78,2.79 0,1.54 1.24,2.78 2.78,2.78 0.04,0 0.09,0 0.13,0 l 0.81,2.56 c -0.77,0.52 -1.24,1.37 -1.24,2.32 0,1.54 1.24,2.78 2.78,2.78 1.24,0 2.36,-0.86 2.7,-2.06 h 2.69 c 0.35,1.2 1.42,2.06 2.7,2.06 1.54,0 2.78,-1.24 2.78,-2.78 0,-0.95 -0.47,-1.8 -1.24,-2.32 l 0.81,-2.56 c 0.05,0 0.09,0 0.13,0 1.54,0 2.78,-1.24 2.78,-2.78 0,-1.54 -1.24,-2.79 -2.78,-2.79 -0.64,0 -1.24,0.22 -1.75,0.6 l -2.18,-1.58 c 0.12,-0.3 0.17,-0.64 0.17,-0.98 0.04,-1.54 -1.24,-2.79 -2.78,-2.79 z"
   class="st18"
   id="path214" />
					</g>
				</g>
				<g
   id="shape327-91"
   v:mID="327"
   v:groupContext="shape"
   v:layerMember="0"
   transform="translate(0.470686,-0.427897)">
					<title
   id="title218">Sheet.327</title>
					<path
   d="m 15.36,344.59 c -0.68,0 -1.28,0.3 -1.71,0.73 l -2.74,-2.01 c 0.17,-0.35 0.3,-0.73 0.3,-1.12 0,-1.28 -1.07,-2.35 -2.35,-2.35 -1.29,0 -2.36,1.07 -2.36,2.35 0,0.39 0.09,0.77 0.3,1.12 l -2.73,2.01 c -0.43,-0.43 -1.03,-0.73 -1.72,-0.73 -1.28,0 -2.35,1.07 -2.35,2.35 0,1.29 1.07,2.36 2.35,2.36 0.13,0 0.3,0 0.43,-0.05 l 1.03,3.21 c -0.77,0.39 -1.33,1.2 -1.33,2.14 0,1.29 1.07,2.36 2.36,2.36 1.19,0 2.18,-0.9 2.35,-2.06 h 3.38 c 0.17,1.16 1.15,2.06 2.35,2.06 1.29,0 2.36,-1.07 2.36,-2.36 0,-0.94 -0.56,-1.75 -1.33,-2.14 l 0.98,-3.21 c 0.13,0.05 0.3,0.05 0.43,0.05 1.29,0 2.35,-1.07 2.35,-2.36 0,-1.28 -1.06,-2.35 -2.35,-2.35 z m -2.48,11.72 c -0.94,0 -1.71,-0.77 -1.71,-1.71 0,-0.94 0.77,-1.71 1.71,-1.71 0.94,0 1.71,0.77 1.71,1.71 0,0.94 -0.77,1.71 -1.71,1.71 z M 7.15,354.3 C 7.06,353.75 6.8,353.28 6.42,352.89 l 1.28,-1.8 c 0.34,0.18 0.73,0.3 1.11,0.3 0.39,0 0.77,-0.08 1.12,-0.3 l 1.28,1.8 c -0.38,0.34 -0.64,0.86 -0.73,1.41 z m -4.07,0.3 c 0,-0.94 0.77,-1.71 1.71,-1.71 0.94,0 1.71,0.77 1.71,1.71 0,0.94 -0.77,1.71 -1.71,1.71 -0.94,0 -1.71,-0.77 -1.71,-1.71 z m -0.77,-9.41 c 0.94,0 1.71,0.77 1.71,1.71 0,0.94 -0.77,1.71 -1.71,1.71 -0.94,0 -1.71,-0.77 -1.71,-1.71 0,-0.94 0.77,-1.71 1.71,-1.71 z m 4.79,-3 c 0,-0.94 0.77,-1.71 1.71,-1.71 0.95,0 1.72,0.77 1.72,1.71 0,0.95 -0.77,1.72 -1.72,1.72 -0.94,0 -1.71,-0.77 -1.71,-1.72 z m 5.95,5.14 -2.1,0.68 c -0.34,-0.68 -1.02,-1.19 -1.79,-1.32 v -2.14 c 0.55,-0.09 1.02,-0.34 1.37,-0.73 l 2.73,2.01 c -0.17,0.34 -0.29,0.73 -0.29,1.11 0.04,0.13 0.04,0.26 0.08,0.39 z m -2.48,1.71 c 0,0.94 -0.77,1.71 -1.71,1.71 -0.94,0 -1.71,-0.77 -1.71,-1.71 0,-0.94 0.77,-1.71 1.71,-1.71 0.94,0 1.71,0.73 1.71,1.71 z m -2.05,-4.49 v 2.14 c -0.82,0.13 -1.5,0.6 -1.8,1.32 l -2.1,-0.68 c 0.04,-0.13 0.04,-0.26 0.04,-0.43 0,-0.38 -0.08,-0.77 -0.3,-1.11 l 2.74,-2.01 c 0.39,0.43 0.86,0.68 1.42,0.77 z m -4.07,3.38 2.1,0.68 c -0.05,0.13 -0.05,0.26 -0.05,0.43 0,0.68 0.3,1.28 0.73,1.71 l -1.28,1.8 c -0.34,-0.17 -0.73,-0.3 -1.11,-0.3 -0.13,0 -0.3,0 -0.43,0.04 l -1.03,-3.21 c 0.43,-0.25 0.81,-0.64 1.07,-1.15 z m 8.43,4.32 c -0.39,0 -0.77,0.09 -1.11,0.3 l -1.29,-1.8 c 0.47,-0.43 0.73,-1.03 0.73,-1.71 0,-0.13 0,-0.3 -0.04,-0.43 l 2.09,-0.68 c 0.22,0.47 0.65,0.85 1.12,1.11 l -1.07,3.21 c -0.17,0 -0.3,0 -0.43,0 z m 0.77,-5.31 c 0,-0.94 0.77,-1.71 1.71,-1.71 0.94,0 1.71,0.77 1.71,1.71 0,0.94 -0.77,1.72 -1.71,1.72 -0.94,0 -1.71,-0.78 -1.71,-1.72 z"
   class="st19"
   id="path220" />
				</g>
			</g>
		</g>
		<g
   id="shape374-93"
   v:mID="374"
   v:groupContext="shape"
   v:layerMember="0"
   transform="translate(389.013,-36.5)">
			<title
   id="title225">Sheet.374</title>
			<desc
   id="desc227">VCN-3 (Spoke)</desc>
			<v:textBlock
   v:margins="rect(4,4,4,4)"
   v:verticalAlign="0" />
			<v:textRect
   cx="73.3127"
   cy="316.456"
   width="146.63"
   height="81" />
			<path
   d="m 0,356.96 h 146.63 v -81 H 0 Z"
   class="st15"
   id="path229" />
			<text
   x="4"
   y="288.06"
   class="st16"
   v:langID="1033"
   id="text231"><v:paragraph /><v:tabList />VCN-3 (Spoke)</text>		</g>
		<g
   id="group375-96"
   transform="translate(522.657,-29.441)"
   v:mID="375"
   v:groupContext="group"
   v:layerMember="0">
			<title
   id="title234">Sheet.375</title>
			<g
   id="shape376-97"
   v:mID="376"
   v:groupContext="shape"
   v:layerMember="0"
   transform="translate(0.0434423,-0.191193)">
				<title
   id="title236">Sheet.376</title>
				<path
   d="m 9.29,339.57 c 1.28,0 2.34,1.06 2.34,2.33 0,0.4 -0.1,0.77 -0.32,1.12 l 2.75,1.98 c 0.43,-0.45 1.01,-0.71 1.71,-0.71 1.28,0 2.35,1.06 2.35,2.33 0,1.27 -1.07,2.33 -2.35,2.33 -0.13,0 -0.29,0 -0.43,-0.05 l -1.07,3.18 c 0.78,0.4 1.31,1.19 1.31,2.12 0,1.27 -1.07,2.33 -2.35,2.33 -1.17,0 -2.16,-0.87 -2.34,-2.01 H 7.52 c -0.16,1.14 -1.14,2.01 -2.34,2.01 -1.28,0 -2.35,-1.06 -2.35,-2.33 0,-0.93 0.56,-1.72 1.33,-2.12 L 3.2,348.9 c -0.1,0.05 -0.29,0.05 -0.43,0.05 -1.28,0 -2.34,-1.06 -2.34,-2.33 0,-1.27 1.06,-2.33 2.34,-2.33 0.7,0 1.29,0.29 1.71,0.71 l 2.75,-1.98 c -0.19,-0.35 -0.29,-0.72 -0.29,-1.12 0,-1.27 1.06,-2.33 2.35,-2.33 z m 0,-0.42 c -1.55,0 -2.78,1.24 -2.78,2.75 0,0.35 0.03,0.69 0.16,0.98 l -2.19,1.57 c -0.45,-0.37 -1.09,-0.59 -1.71,-0.59 -1.52,0 -2.77,1.22 -2.77,2.76 0,1.54 1.25,2.76 2.77,2.76 0.06,0 0.11,0 0.14,0 l 0.83,2.54 c -0.78,0.5 -1.26,1.35 -1.26,2.28 0,1.54 1.26,2.76 2.78,2.76 1.25,0 2.34,-0.85 2.69,-2.02 h 2.7 c 0.34,1.17 1.41,2.02 2.69,2.02 1.52,0 2.78,-1.22 2.78,-2.76 0,-0.93 -0.48,-1.78 -1.26,-2.28 l 0.83,-2.54 c 0.03,0 0.08,0 0.11,0 1.54,0 2.77,-1.22 2.77,-2.76 0,-1.54 -1.23,-2.76 -2.77,-2.76 -0.65,0 -1.23,0.22 -1.74,0.59 l -2.19,-1.57 c 0.14,-0.29 0.19,-0.63 0.19,-0.98 0.03,-1.51 -1.25,-2.75 -2.77,-2.75 z"
   class="st17"
   id="path238" />
			</g>
			<g
   id="group377-99"
   v:mID="377"
   v:groupContext="group"
   v:layerMember="0">
				<title
   id="title241">VCN</title>
				<g
   id="group378-100"
   v:mID="378"
   v:groupContext="group"
   v:layerMember="0">
					<title
   id="title243">Sheet.378</title>
					<g
   id="shape379-101"
   v:mID="379"
   v:groupContext="shape"
   v:layerMember="0"
   transform="translate(0.213948,-0.213948)">
						<title
   id="title245">Sheet.379</title>
						<path
   d="m 13.14,356.96 c -1.2,0 -2.27,-0.86 -2.53,-2.06 H 7.57 c -0.25,1.16 -1.28,2.06 -2.52,2.06 -1.41,0 -2.57,-1.16 -2.57,-2.57 0,-0.9 0.52,-1.76 1.29,-2.23 L 2.82,349.3 c -0.08,0 -0.17,0 -0.25,0 -1.41,0 -2.57,-1.16 -2.57,-2.57 0,-1.41 1.16,-2.57 2.57,-2.57 0.64,0 1.24,0.22 1.71,0.69 l 2.48,-1.8 c -0.13,-0.34 -0.21,-0.68 -0.21,-1.07 0,-1.41 1.15,-2.57 2.56,-2.57 1.42,0 2.57,1.16 2.57,2.57 0,0.34 -0.08,0.73 -0.21,1.07 l 2.44,1.8 c 0.47,-0.43 1.07,-0.69 1.71,-0.69 1.41,0 2.57,1.16 2.57,2.57 0,1.41 -1.16,2.57 -2.57,2.57 -0.09,0 -0.17,0 -0.26,0 l -0.94,2.86 c 0.77,0.47 1.28,1.33 1.28,2.23 0,1.41 -1.15,2.57 -2.56,2.57 z"
   class="st18"
   id="path247" />
					</g>
					<g
   id="shape380-103"
   v:mID="380"
   v:groupContext="shape"
   v:layerMember="0">
						<title
   id="title250">Sheet.380</title>
						<path
   d="m 9.29,339.41 c 1.28,0 2.35,1.07 2.35,2.36 0,0.38 -0.09,0.77 -0.3,1.11 l 2.74,2.01 c 0.43,-0.47 1.02,-0.73 1.71,-0.73 1.28,0 2.35,1.07 2.35,2.36 0,1.28 -1.07,2.35 -2.35,2.35 -0.13,0 -0.3,0 -0.43,-0.04 l -1.07,3.21 c 0.77,0.38 1.33,1.19 1.33,2.14 0,1.28 -1.07,2.35 -2.36,2.35 -1.19,0 -2.18,-0.9 -2.35,-2.06 H 7.53 c -0.17,1.16 -1.15,2.06 -2.35,2.06 -1.29,0 -2.36,-1.07 -2.36,-2.35 0,-0.95 0.56,-1.76 1.33,-2.14 l -0.94,-3.21 c -0.13,0.04 -0.3,0.04 -0.43,0.04 -1.28,0 -2.35,-1.07 -2.35,-2.35 0,-1.29 1.07,-2.36 2.35,-2.36 0.69,0 1.29,0.3 1.71,0.73 l 2.74,-2.01 c -0.17,-0.34 -0.3,-0.73 -0.3,-1.11 0,-1.29 1.07,-2.36 2.36,-2.36 z m 0,-0.43 c -1.55,0 -2.79,1.25 -2.79,2.79 0,0.34 0.05,0.68 0.18,0.98 l -2.19,1.58 c -0.47,-0.38 -1.11,-0.6 -1.71,-0.6 -1.54,0 -2.78,1.25 -2.78,2.79 0,1.54 1.24,2.78 2.78,2.78 0.04,0 0.09,0 0.13,0 l 0.81,2.56 c -0.77,0.52 -1.24,1.37 -1.24,2.32 0,1.54 1.24,2.78 2.78,2.78 1.24,0 2.36,-0.86 2.7,-2.06 h 2.69 c 0.35,1.2 1.42,2.06 2.7,2.06 1.54,0 2.78,-1.24 2.78,-2.78 0,-0.95 -0.47,-1.8 -1.24,-2.32 l 0.81,-2.56 c 0.05,0 0.09,0 0.13,0 1.54,0 2.78,-1.24 2.78,-2.78 0,-1.54 -1.24,-2.79 -2.78,-2.79 -0.64,0 -1.24,0.22 -1.75,0.6 l -2.18,-1.58 c 0.12,-0.3 0.17,-0.64 0.17,-0.98 0.04,-1.54 -1.24,-2.79 -2.78,-2.79 z"
   class="st18"
   id="path252" />
					</g>
				</g>
				<g
   id="shape381-105"
   v:mID="381"
   v:groupContext="shape"
   v:layerMember="0"
   transform="translate(0.470686,-0.427897)">
					<title
   id="title256">Sheet.381</title>
					<path
   d="m 15.36,344.59 c -0.68,0 -1.28,0.3 -1.71,0.73 l -2.74,-2.01 c 0.17,-0.35 0.3,-0.73 0.3,-1.12 0,-1.28 -1.07,-2.35 -2.35,-2.35 -1.29,0 -2.36,1.07 -2.36,2.35 0,0.39 0.09,0.77 0.3,1.12 l -2.73,2.01 c -0.43,-0.43 -1.03,-0.73 -1.72,-0.73 -1.28,0 -2.35,1.07 -2.35,2.35 0,1.29 1.07,2.36 2.35,2.36 0.13,0 0.3,0 0.43,-0.05 l 1.03,3.21 c -0.77,0.39 -1.33,1.2 -1.33,2.14 0,1.29 1.07,2.36 2.36,2.36 1.19,0 2.18,-0.9 2.35,-2.06 h 3.38 c 0.17,1.16 1.15,2.06 2.35,2.06 1.29,0 2.36,-1.07 2.36,-2.36 0,-0.94 -0.56,-1.75 -1.33,-2.14 l 0.98,-3.21 c 0.13,0.05 0.3,0.05 0.43,0.05 1.29,0 2.35,-1.07 2.35,-2.36 0,-1.28 -1.06,-2.35 -2.35,-2.35 z m -2.48,11.72 c -0.94,0 -1.71,-0.77 -1.71,-1.71 0,-0.94 0.77,-1.71 1.71,-1.71 0.94,0 1.71,0.77 1.71,1.71 0,0.94 -0.77,1.71 -1.71,1.71 z M 7.15,354.3 C 7.06,353.75 6.8,353.28 6.42,352.89 l 1.28,-1.8 c 0.34,0.18 0.73,0.3 1.11,0.3 0.39,0 0.77,-0.08 1.12,-0.3 l 1.28,1.8 c -0.38,0.34 -0.64,0.86 -0.73,1.41 z m -4.07,0.3 c 0,-0.94 0.77,-1.71 1.71,-1.71 0.94,0 1.71,0.77 1.71,1.71 0,0.94 -0.77,1.71 -1.71,1.71 -0.94,0 -1.71,-0.77 -1.71,-1.71 z m -0.77,-9.41 c 0.94,0 1.71,0.77 1.71,1.71 0,0.94 -0.77,1.71 -1.71,1.71 -0.94,0 -1.71,-0.77 -1.71,-1.71 0,-0.94 0.77,-1.71 1.71,-1.71 z m 4.79,-3 c 0,-0.94 0.77,-1.71 1.71,-1.71 0.95,0 1.72,0.77 1.72,1.71 0,0.95 -0.77,1.72 -1.72,1.72 -0.94,0 -1.71,-0.77 -1.71,-1.72 z m 5.95,5.14 -2.1,0.68 c -0.34,-0.68 -1.02,-1.19 -1.79,-1.32 v -2.14 c 0.55,-0.09 1.02,-0.34 1.37,-0.73 l 2.73,2.01 c -0.17,0.34 -0.29,0.73 -0.29,1.11 0.04,0.13 0.04,0.26 0.08,0.39 z m -2.48,1.71 c 0,0.94 -0.77,1.71 -1.71,1.71 -0.94,0 -1.71,-0.77 -1.71,-1.71 0,-0.94 0.77,-1.71 1.71,-1.71 0.94,0 1.71,0.73 1.71,1.71 z m -2.05,-4.49 v 2.14 c -0.82,0.13 -1.5,0.6 -1.8,1.32 l -2.1,-0.68 c 0.04,-0.13 0.04,-0.26 0.04,-0.43 0,-0.38 -0.08,-0.77 -0.3,-1.11 l 2.74,-2.01 c 0.39,0.43 0.86,0.68 1.42,0.77 z m -4.07,3.38 2.1,0.68 c -0.05,0.13 -0.05,0.26 -0.05,0.43 0,0.68 0.3,1.28 0.73,1.71 l -1.28,1.8 c -0.34,-0.17 -0.73,-0.3 -1.11,-0.3 -0.13,0 -0.3,0 -0.43,0.04 l -1.03,-3.21 c 0.43,-0.25 0.81,-0.64 1.07,-1.15 z m 8.43,4.32 c -0.39,0 -0.77,0.09 -1.11,0.3 l -1.29,-1.8 c 0.47,-0.43 0.73,-1.03 0.73,-1.71 0,-0.13 0,-0.3 -0.04,-0.43 l 2.09,-0.68 c 0.22,0.47 0.65,0.85 1.12,1.11 l -1.07,3.21 c -0.17,0 -0.3,0 -0.43,0 z m 0.77,-5.31 c 0,-0.94 0.77,-1.71 1.71,-1.71 0.94,0 1.71,0.77 1.71,1.71 0,0.94 -0.77,1.72 -1.71,1.72 -0.94,0 -1.71,-0.78 -1.71,-1.72 z"
   class="st19"
   id="path258" />
				</g>
			</g>
		</g>
		<g
   id="group427-107"
   transform="translate(388.642,-245.441)"
   v:mID="427"
   v:groupContext="group"
   v:layerMember="0">
			<title
   id="title263">Sheet.427</title>
			<g
   id="shape428-108"
   v:mID="428"
   v:groupContext="shape"
   v:layerMember="0"
   transform="translate(0,-7.05901)">
				<title
   id="title265">Sheet.428</title>
				<desc
   id="desc267">VCN-1 (Spoke)</desc>
				<v:textBlock
   v:margins="rect(4,4,4,4)"
   v:verticalAlign="0" />
				<v:textRect
   cx="73.3127"
   cy="316.456"
   width="146.63"
   height="81" />
				<path
   d="m 0,356.96 h 146.63 v -81 H 0 Z"
   class="st15"
   id="path269" />
				<text
   x="4"
   y="288.06"
   class="st16"
   v:langID="1033"
   id="text271"><v:paragraph /><v:tabList />VCN-1 (Spoke)</text>			</g>
			<g
   id="group429-111"
   transform="translate(133.644)"
   v:mID="429"
   v:groupContext="group"
   v:layerMember="0">
				<title
   id="title274">Sheet.429</title>
				<g
   id="shape430-112"
   v:mID="430"
   v:groupContext="shape"
   v:layerMember="0"
   transform="translate(0.0434423,-0.191193)">
					<title
   id="title276">Sheet.430</title>
					<path
   d="m 9.29,339.57 c 1.28,0 2.34,1.06 2.34,2.33 0,0.4 -0.1,0.77 -0.32,1.12 l 2.75,1.98 c 0.43,-0.45 1.01,-0.71 1.71,-0.71 1.28,0 2.35,1.06 2.35,2.33 0,1.27 -1.07,2.33 -2.35,2.33 -0.13,0 -0.29,0 -0.43,-0.05 l -1.07,3.18 c 0.78,0.4 1.31,1.19 1.31,2.12 0,1.27 -1.07,2.33 -2.35,2.33 -1.17,0 -2.16,-0.87 -2.34,-2.01 H 7.52 c -0.16,1.14 -1.14,2.01 -2.34,2.01 -1.28,0 -2.35,-1.06 -2.35,-2.33 0,-0.93 0.56,-1.72 1.33,-2.12 L 3.2,348.9 c -0.1,0.05 -0.29,0.05 -0.43,0.05 -1.28,0 -2.34,-1.06 -2.34,-2.33 0,-1.27 1.06,-2.33 2.34,-2.33 0.7,0 1.29,0.29 1.71,0.71 l 2.75,-1.98 c -0.19,-0.35 -0.29,-0.72 -0.29,-1.12 0,-1.27 1.06,-2.33 2.35,-2.33 z m 0,-0.42 c -1.55,0 -2.78,1.24 -2.78,2.75 0,0.35 0.03,0.69 0.16,0.98 l -2.19,1.57 c -0.45,-0.37 -1.09,-0.59 -1.71,-0.59 -1.52,0 -2.77,1.22 -2.77,2.76 0,1.54 1.25,2.76 2.77,2.76 0.06,0 0.11,0 0.14,0 l 0.83,2.54 c -0.78,0.5 -1.26,1.35 -1.26,2.28 0,1.54 1.26,2.76 2.78,2.76 1.25,0 2.34,-0.85 2.69,-2.02 h 2.7 c 0.34,1.17 1.41,2.02 2.69,2.02 1.52,0 2.78,-1.22 2.78,-2.76 0,-0.93 -0.48,-1.78 -1.26,-2.28 l 0.83,-2.54 c 0.03,0 0.08,0 0.11,0 1.54,0 2.77,-1.22 2.77,-2.76 0,-1.54 -1.23,-2.76 -2.77,-2.76 -0.65,0 -1.23,0.22 -1.74,0.59 l -2.19,-1.57 c 0.14,-0.29 0.19,-0.63 0.19,-0.98 0.03,-1.51 -1.25,-2.75 -2.77,-2.75 z"
   class="st17"
   id="path278" />
				</g>
				<g
   id="group431-114"
   v:mID="431"
   v:groupContext="group"
   v:layerMember="0">
					<title
   id="title281">VCN</title>
					<g
   id="group432-115"
   v:mID="432"
   v:groupContext="group"
   v:layerMember="0">
						<title
   id="title283">Sheet.432</title>
						<g
   id="shape433-116"
   v:mID="433"
   v:groupContext="shape"
   v:layerMember="0"
   transform="translate(0.213948,-0.213948)">
							<title
   id="title285">Sheet.433</title>
							<path
   d="m 13.14,356.96 c -1.2,0 -2.27,-0.86 -2.53,-2.06 H 7.57 c -0.25,1.16 -1.28,2.06 -2.52,2.06 -1.41,0 -2.57,-1.16 -2.57,-2.57 0,-0.9 0.52,-1.76 1.29,-2.23 L 2.82,349.3 c -0.08,0 -0.17,0 -0.25,0 -1.41,0 -2.57,-1.16 -2.57,-2.57 0,-1.41 1.16,-2.57 2.57,-2.57 0.64,0 1.24,0.22 1.71,0.69 l 2.48,-1.8 c -0.13,-0.34 -0.21,-0.68 -0.21,-1.07 0,-1.41 1.15,-2.57 2.56,-2.57 1.42,0 2.57,1.16 2.57,2.57 0,0.34 -0.08,0.73 -0.21,1.07 l 2.44,1.8 c 0.47,-0.43 1.07,-0.69 1.71,-0.69 1.41,0 2.57,1.16 2.57,2.57 0,1.41 -1.16,2.57 -2.57,2.57 -0.09,0 -0.17,0 -0.26,0 l -0.94,2.86 c 0.77,0.47 1.28,1.33 1.28,2.23 0,1.41 -1.15,2.57 -2.56,2.57 z"
   class="st18"
   id="path287" />
						</g>
						<g
   id="shape434-118"
   v:mID="434"
   v:groupContext="shape"
   v:layerMember="0">
							<title
   id="title290">Sheet.434</title>
							<path
   d="m 9.29,339.41 c 1.28,0 2.35,1.07 2.35,2.36 0,0.38 -0.09,0.77 -0.3,1.11 l 2.74,2.01 c 0.43,-0.47 1.02,-0.73 1.71,-0.73 1.28,0 2.35,1.07 2.35,2.36 0,1.28 -1.07,2.35 -2.35,2.35 -0.13,0 -0.3,0 -0.43,-0.04 l -1.07,3.21 c 0.77,0.38 1.33,1.19 1.33,2.14 0,1.28 -1.07,2.35 -2.36,2.35 -1.19,0 -2.18,-0.9 -2.35,-2.06 H 7.53 c -0.17,1.16 -1.15,2.06 -2.35,2.06 -1.29,0 -2.36,-1.07 -2.36,-2.35 0,-0.95 0.56,-1.76 1.33,-2.14 l -0.94,-3.21 c -0.13,0.04 -0.3,0.04 -0.43,0.04 -1.28,0 -2.35,-1.07 -2.35,-2.35 0,-1.29 1.07,-2.36 2.35,-2.36 0.69,0 1.29,0.3 1.71,0.73 l 2.74,-2.01 c -0.17,-0.34 -0.3,-0.73 -0.3,-1.11 0,-1.29 1.07,-2.36 2.36,-2.36 z m 0,-0.43 c -1.55,0 -2.79,1.25 -2.79,2.79 0,0.34 0.05,0.68 0.18,0.98 l -2.19,1.58 c -0.47,-0.38 -1.11,-0.6 -1.71,-0.6 -1.54,0 -2.78,1.25 -2.78,2.79 0,1.54 1.24,2.78 2.78,2.78 0.04,0 0.09,0 0.13,0 l 0.81,2.56 c -0.77,0.52 -1.24,1.37 -1.24,2.32 0,1.54 1.24,2.78 2.78,2.78 1.24,0 2.36,-0.86 2.7,-2.06 h 2.69 c 0.35,1.2 1.42,2.06 2.7,2.06 1.54,0 2.78,-1.24 2.78,-2.78 0,-0.95 -0.47,-1.8 -1.24,-2.32 l 0.81,-2.56 c 0.05,0 0.09,0 0.13,0 1.54,0 2.78,-1.24 2.78,-2.78 0,-1.54 -1.24,-2.79 -2.78,-2.79 -0.64,0 -1.24,0.22 -1.75,0.6 l -2.18,-1.58 c 0.12,-0.3 0.17,-0.64 0.17,-0.98 0.04,-1.54 -1.24,-2.79 -2.78,-2.79 z"
   class="st18"
   id="path292" />
						</g>
					</g>
					<g
   id="shape435-120"
   v:mID="435"
   v:groupContext="shape"
   v:layerMember="0"
   transform="translate(0.470686,-0.427897)">
						<title
   id="title296">Sheet.435</title>
						<path
   d="m 15.36,344.59 c -0.68,0 -1.28,0.3 -1.71,0.73 l -2.74,-2.01 c 0.17,-0.35 0.3,-0.73 0.3,-1.12 0,-1.28 -1.07,-2.35 -2.35,-2.35 -1.29,0 -2.36,1.07 -2.36,2.35 0,0.39 0.09,0.77 0.3,1.12 l -2.73,2.01 c -0.43,-0.43 -1.03,-0.73 -1.72,-0.73 -1.28,0 -2.35,1.07 -2.35,2.35 0,1.29 1.07,2.36 2.35,2.36 0.13,0 0.3,0 0.43,-0.05 l 1.03,3.21 c -0.77,0.39 -1.33,1.2 -1.33,2.14 0,1.29 1.07,2.36 2.36,2.36 1.19,0 2.18,-0.9 2.35,-2.06 h 3.38 c 0.17,1.16 1.15,2.06 2.35,2.06 1.29,0 2.36,-1.07 2.36,-2.36 0,-0.94 -0.56,-1.75 -1.33,-2.14 l 0.98,-3.21 c 0.13,0.05 0.3,0.05 0.43,0.05 1.29,0 2.35,-1.07 2.35,-2.36 0,-1.28 -1.06,-2.35 -2.35,-2.35 z m -2.48,11.72 c -0.94,0 -1.71,-0.77 -1.71,-1.71 0,-0.94 0.77,-1.71 1.71,-1.71 0.94,0 1.71,0.77 1.71,1.71 0,0.94 -0.77,1.71 -1.71,1.71 z M 7.15,354.3 C 7.06,353.75 6.8,353.28 6.42,352.89 l 1.28,-1.8 c 0.34,0.18 0.73,0.3 1.11,0.3 0.39,0 0.77,-0.08 1.12,-0.3 l 1.28,1.8 c -0.38,0.34 -0.64,0.86 -0.73,1.41 z m -4.07,0.3 c 0,-0.94 0.77,-1.71 1.71,-1.71 0.94,0 1.71,0.77 1.71,1.71 0,0.94 -0.77,1.71 -1.71,1.71 -0.94,0 -1.71,-0.77 -1.71,-1.71 z m -0.77,-9.41 c 0.94,0 1.71,0.77 1.71,1.71 0,0.94 -0.77,1.71 -1.71,1.71 -0.94,0 -1.71,-0.77 -1.71,-1.71 0,-0.94 0.77,-1.71 1.71,-1.71 z m 4.79,-3 c 0,-0.94 0.77,-1.71 1.71,-1.71 0.95,0 1.72,0.77 1.72,1.71 0,0.95 -0.77,1.72 -1.72,1.72 -0.94,0 -1.71,-0.77 -1.71,-1.72 z m 5.95,5.14 -2.1,0.68 c -0.34,-0.68 -1.02,-1.19 -1.79,-1.32 v -2.14 c 0.55,-0.09 1.02,-0.34 1.37,-0.73 l 2.73,2.01 c -0.17,0.34 -0.29,0.73 -0.29,1.11 0.04,0.13 0.04,0.26 0.08,0.39 z m -2.48,1.71 c 0,0.94 -0.77,1.71 -1.71,1.71 -0.94,0 -1.71,-0.77 -1.71,-1.71 0,-0.94 0.77,-1.71 1.71,-1.71 0.94,0 1.71,0.73 1.71,1.71 z m -2.05,-4.49 v 2.14 c -0.82,0.13 -1.5,0.6 -1.8,1.32 l -2.1,-0.68 c 0.04,-0.13 0.04,-0.26 0.04,-0.43 0,-0.38 -0.08,-0.77 -0.3,-1.11 l 2.74,-2.01 c 0.39,0.43 0.86,0.68 1.42,0.77 z m -4.07,3.38 2.1,0.68 c -0.05,0.13 -0.05,0.26 -0.05,0.43 0,0.68 0.3,1.28 0.73,1.71 l -1.28,1.8 c -0.34,-0.17 -0.73,-0.3 -1.11,-0.3 -0.13,0 -0.3,0 -0.43,0.04 l -1.03,-3.21 c 0.43,-0.25 0.81,-0.64 1.07,-1.15 z m 8.43,4.32 c -0.39,0 -0.77,0.09 -1.11,0.3 l -1.29,-1.8 c 0.47,-0.43 0.73,-1.03 0.73,-1.71 0,-0.13 0,-0.3 -0.04,-0.43 l 2.09,-0.68 c 0.22,0.47 0.65,0.85 1.12,1.11 l -1.07,3.21 c -0.17,0 -0.3,0 -0.43,0 z m 0.77,-5.31 c 0,-0.94 0.77,-1.71 1.71,-1.71 0.94,0 1.71,0.77 1.71,1.71 0,0.94 -0.77,1.72 -1.71,1.72 -0.94,0 -1.71,-0.78 -1.71,-1.72 z"
   class="st19"
   id="path298" />
					</g>
				</g>
			</g>
		</g>
		<g
   id="shape503-122"
   v:mID="503"
   v:groupContext="shape"
   v:layerMember="1"
   transform="translate(355.604,-182.839)">
			<title
   id="title304">Sheet.503</title>
			<desc
   id="desc306">Local Peering</desc>
			<v:textBlock
   v:margins="rect(4,4,4,4)" />
			<v:textRect
   cx="55.7083"
   cy="347.956"
   width="58.79"
   height="17.6036" />
			<path
   d="M 0,347.96 H 111.42"
   class="st12"
   id="path308" />
			<rect
   v:rectContext="textBkgnd"
   x="31.296301"
   y="343.15701"
   width="48.8241"
   height="9.5998497"
   class="st13"
   id="rect310" />
			<text
   x="31.299999"
   y="350.35999"
   class="st14"
   v:langID="1033"
   id="text312"><v:paragraph
   v:horizAlign="1" /><v:tabList />Local Peering</text>		</g>
		<g
   id="shape543-131"
   v:mID="543"
   v:groupContext="shape"
   v:layerMember="1"
   transform="translate(305.02,-241.103)">
			<title
   id="title315">Sheet.543</title>
			<desc
   id="desc317">Local Peering</desc>
			<v:textBlock
   v:margins="rect(4,4,4,4)" />
			<v:textRect
   cx="18.1766"
   cy="311.809"
   width="58.79"
   height="17.6036" />
			<path
   d="M 0,356.96 V 311.81 H 81.5"
   class="st12"
   id="path319" />
			<rect
   v:rectContext="textBkgnd"
   x="-6.2354999"
   y="307.01001"
   width="48.8241"
   height="9.5998497"
   class="st20"
   id="rect321" />
			<text
   x="-6.2399998"
   y="314.20999"
   class="st14"
   v:langID="1033"
   id="text323"><v:paragraph
   v:horizAlign="1" /><v:tabList />Local Peering</text>		</g>
		<g
   id="shape544-140"
   v:mID="544"
   v:groupContext="shape"
   v:layerMember="1"
   transform="translate(305.583,-155.603)">
			<title
   id="title326">Sheet.544</title>
			<desc
   id="desc328">Local Peering</desc>
			<v:textBlock
   v:margins="rect(4,4,4,4)" />
			<v:textRect
   cx="15.1875"
   cy="442.456"
   width="58.79"
   height="17.6036" />
			<path
   d="m 0,356.96 v 85.35 h 80.94"
   class="st12"
   id="path330" />
			<rect
   v:rectContext="textBkgnd"
   x="-9.2245598"
   y="437.65701"
   width="48.8241"
   height="9.5998497"
   class="st13"
   id="rect332" />
			<text
   x="-9.2200003"
   y="444.85999"
   class="st14"
   v:langID="1033"
   id="text334"><v:paragraph
   v:horizAlign="1" /><v:tabList />Local Peering</text>		</g>
		<g
   id="shape548-149"
   v:mID="548"
   v:groupContext="shape"
   v:layerMember="1"
   transform="translate(386.864,-295.103)">
			<title
   id="title337">Sheet.548</title>
			<path
   d="m 0,356.96 h -95.34 v 92.38 h -191.25"
   class="st3"
   id="path339" />
		</g>
		<g
   id="shape549-156"
   v:mID="549"
   v:groupContext="shape"
   v:layerMember="1"
   transform="translate(467.02,-173.603)">
			<title
   id="title342">Sheet.549</title>
			<path
   d="M 0,347.96 H -366.75"
   class="st3"
   id="path344" />
		</g>
		<g
   id="group550-163"
   transform="translate(209.013,-151.103)"
   v:mID="550"
   v:groupContext="group"
   v:layerMember="0">
			<title
   id="title347">Sheet.550</title>
			<g
   id="shape219-164"
   v:mID="219"
   v:groupContext="shape"
   v:layerMember="0"
   transform="translate(0,-6.89678)">
				<title
   id="title349">Sheet.219</title>
				<desc
   id="desc351">VCN-H (Hub)</desc>
				<v:textBlock
   v:margins="rect(4,4,4,4)"
   v:verticalAlign="0" />
				<v:textRect
   cx="73.3127"
   cy="316.456"
   width="146.63"
   height="81" />
				<path
   d="m 0,356.96 h 146.63 v -81 H 0 Z"
   class="st15"
   id="path353" />
				<text
   x="4"
   y="288.06"
   class="st16"
   v:langID="1033"
   id="text355"><v:paragraph /><v:tabList />VCN-H (Hub)</text>			</g>
			<g
   id="group220-167"
   transform="translate(137.344)"
   v:mID="220"
   v:groupContext="group"
   v:layerMember="0">
				<title
   id="title358">Sheet.220</title>
				<g
   id="shape221-168"
   v:mID="221"
   v:groupContext="shape"
   v:layerMember="0"
   transform="translate(0.0434423,-0.191193)">
					<title
   id="title360">Sheet.221</title>
					<path
   d="m 9.29,339.57 c 1.28,0 2.34,1.06 2.34,2.33 0,0.4 -0.1,0.77 -0.32,1.12 l 2.75,1.98 c 0.43,-0.45 1.01,-0.71 1.71,-0.71 1.28,0 2.35,1.06 2.35,2.33 0,1.27 -1.07,2.33 -2.35,2.33 -0.13,0 -0.29,0 -0.43,-0.05 l -1.07,3.18 c 0.78,0.4 1.31,1.19 1.31,2.12 0,1.27 -1.07,2.33 -2.35,2.33 -1.17,0 -2.16,-0.87 -2.34,-2.01 H 7.52 c -0.16,1.14 -1.14,2.01 -2.34,2.01 -1.28,0 -2.35,-1.06 -2.35,-2.33 0,-0.93 0.56,-1.72 1.33,-2.12 L 3.2,348.9 c -0.1,0.05 -0.29,0.05 -0.43,0.05 -1.28,0 -2.34,-1.06 -2.34,-2.33 0,-1.27 1.06,-2.33 2.34,-2.33 0.7,0 1.29,0.29 1.71,0.71 l 2.75,-1.98 c -0.19,-0.35 -0.29,-0.72 -0.29,-1.12 0,-1.27 1.06,-2.33 2.35,-2.33 z m 0,-0.42 c -1.55,0 -2.78,1.24 -2.78,2.75 0,0.35 0.03,0.69 0.16,0.98 l -2.19,1.57 c -0.45,-0.37 -1.09,-0.59 -1.71,-0.59 -1.52,0 -2.77,1.22 -2.77,2.76 0,1.54 1.25,2.76 2.77,2.76 0.06,0 0.11,0 0.14,0 l 0.83,2.54 c -0.78,0.5 -1.26,1.35 -1.26,2.28 0,1.54 1.26,2.76 2.78,2.76 1.25,0 2.34,-0.85 2.69,-2.02 h 2.7 c 0.34,1.17 1.41,2.02 2.69,2.02 1.52,0 2.78,-1.22 2.78,-2.76 0,-0.93 -0.48,-1.78 -1.26,-2.28 l 0.83,-2.54 c 0.03,0 0.08,0 0.11,0 1.54,0 2.77,-1.22 2.77,-2.76 0,-1.54 -1.23,-2.76 -2.77,-2.76 -0.65,0 -1.23,0.22 -1.74,0.59 l -2.19,-1.57 c 0.14,-0.29 0.19,-0.63 0.19,-0.98 0.03,-1.51 -1.25,-2.75 -2.77,-2.75 z"
   class="st17"
   id="path362" />
				</g>
				<g
   id="group222-170"
   v:mID="222"
   v:groupContext="group"
   v:layerMember="0">
					<title
   id="title365">VCN</title>
					<g
   id="group223-171"
   v:mID="223"
   v:groupContext="group"
   v:layerMember="0">
						<title
   id="title367">Sheet.223</title>
						<g
   id="shape224-172"
   v:mID="224"
   v:groupContext="shape"
   v:layerMember="0"
   transform="translate(0.213948,-0.213948)">
							<title
   id="title369">Sheet.224</title>
							<path
   d="m 13.14,356.96 c -1.2,0 -2.27,-0.86 -2.53,-2.06 H 7.57 c -0.25,1.16 -1.28,2.06 -2.52,2.06 -1.41,0 -2.57,-1.16 -2.57,-2.57 0,-0.9 0.52,-1.76 1.29,-2.23 L 2.82,349.3 c -0.08,0 -0.17,0 -0.25,0 -1.41,0 -2.57,-1.16 -2.57,-2.57 0,-1.41 1.16,-2.57 2.57,-2.57 0.64,0 1.24,0.22 1.71,0.69 l 2.48,-1.8 c -0.13,-0.34 -0.21,-0.68 -0.21,-1.07 0,-1.41 1.15,-2.57 2.56,-2.57 1.42,0 2.57,1.16 2.57,2.57 0,0.34 -0.08,0.73 -0.21,1.07 l 2.44,1.8 c 0.47,-0.43 1.07,-0.69 1.71,-0.69 1.41,0 2.57,1.16 2.57,2.57 0,1.41 -1.16,2.57 -2.57,2.57 -0.09,0 -0.17,0 -0.26,0 l -0.94,2.86 c 0.77,0.47 1.28,1.33 1.28,2.23 0,1.41 -1.15,2.57 -2.56,2.57 z"
   class="st18"
   id="path371" />
						</g>
						<g
   id="shape225-174"
   v:mID="225"
   v:groupContext="shape"
   v:layerMember="0">
							<title
   id="title374">Sheet.225</title>
							<path
   d="m 9.29,339.41 c 1.28,0 2.35,1.07 2.35,2.36 0,0.38 -0.09,0.77 -0.3,1.11 l 2.74,2.01 c 0.43,-0.47 1.02,-0.73 1.71,-0.73 1.28,0 2.35,1.07 2.35,2.36 0,1.28 -1.07,2.35 -2.35,2.35 -0.13,0 -0.3,0 -0.43,-0.04 l -1.07,3.21 c 0.77,0.38 1.33,1.19 1.33,2.14 0,1.28 -1.07,2.35 -2.36,2.35 -1.19,0 -2.18,-0.9 -2.35,-2.06 H 7.53 c -0.17,1.16 -1.15,2.06 -2.35,2.06 -1.29,0 -2.36,-1.07 -2.36,-2.35 0,-0.95 0.56,-1.76 1.33,-2.14 l -0.94,-3.21 c -0.13,0.04 -0.3,0.04 -0.43,0.04 -1.28,0 -2.35,-1.07 -2.35,-2.35 0,-1.29 1.07,-2.36 2.35,-2.36 0.69,0 1.29,0.3 1.71,0.73 l 2.74,-2.01 c -0.17,-0.34 -0.3,-0.73 -0.3,-1.11 0,-1.29 1.07,-2.36 2.36,-2.36 z m 0,-0.43 c -1.55,0 -2.79,1.25 -2.79,2.79 0,0.34 0.05,0.68 0.18,0.98 l -2.19,1.58 c -0.47,-0.38 -1.11,-0.6 -1.71,-0.6 -1.54,0 -2.78,1.25 -2.78,2.79 0,1.54 1.24,2.78 2.78,2.78 0.04,0 0.09,0 0.13,0 l 0.81,2.56 c -0.77,0.52 -1.24,1.37 -1.24,2.32 0,1.54 1.24,2.78 2.78,2.78 1.24,0 2.36,-0.86 2.7,-2.06 h 2.69 c 0.35,1.2 1.42,2.06 2.7,2.06 1.54,0 2.78,-1.24 2.78,-2.78 0,-0.95 -0.47,-1.8 -1.24,-2.32 l 0.81,-2.56 c 0.05,0 0.09,0 0.13,0 1.54,0 2.78,-1.24 2.78,-2.78 0,-1.54 -1.24,-2.79 -2.78,-2.79 -0.64,0 -1.24,0.22 -1.75,0.6 l -2.18,-1.58 c 0.12,-0.3 0.17,-0.64 0.17,-0.98 0.04,-1.54 -1.24,-2.79 -2.78,-2.79 z"
   class="st18"
   id="path376" />
						</g>
					</g>
					<g
   id="shape226-176"
   v:mID="226"
   v:groupContext="shape"
   v:layerMember="0"
   transform="translate(0.470686,-0.427897)">
						<title
   id="title380">Sheet.226</title>
						<path
   d="m 15.36,344.59 c -0.68,0 -1.28,0.3 -1.71,0.73 l -2.74,-2.01 c 0.17,-0.35 0.3,-0.73 0.3,-1.12 0,-1.28 -1.07,-2.35 -2.35,-2.35 -1.29,0 -2.36,1.07 -2.36,2.35 0,0.39 0.09,0.77 0.3,1.12 l -2.73,2.01 c -0.43,-0.43 -1.03,-0.73 -1.72,-0.73 -1.28,0 -2.35,1.07 -2.35,2.35 0,1.29 1.07,2.36 2.35,2.36 0.13,0 0.3,0 0.43,-0.05 l 1.03,3.21 c -0.77,0.39 -1.33,1.2 -1.33,2.14 0,1.29 1.07,2.36 2.36,2.36 1.19,0 2.18,-0.9 2.35,-2.06 h 3.38 c 0.17,1.16 1.15,2.06 2.35,2.06 1.29,0 2.36,-1.07 2.36,-2.36 0,-0.94 -0.56,-1.75 -1.33,-2.14 l 0.98,-3.21 c 0.13,0.05 0.3,0.05 0.43,0.05 1.29,0 2.35,-1.07 2.35,-2.36 0,-1.28 -1.06,-2.35 -2.35,-2.35 z m -2.48,11.72 c -0.94,0 -1.71,-0.77 -1.71,-1.71 0,-0.94 0.77,-1.71 1.71,-1.71 0.94,0 1.71,0.77 1.71,1.71 0,0.94 -0.77,1.71 -1.71,1.71 z M 7.15,354.3 C 7.06,353.75 6.8,353.28 6.42,352.89 l 1.28,-1.8 c 0.34,0.18 0.73,0.3 1.11,0.3 0.39,0 0.77,-0.08 1.12,-0.3 l 1.28,1.8 c -0.38,0.34 -0.64,0.86 -0.73,1.41 z m -4.07,0.3 c 0,-0.94 0.77,-1.71 1.71,-1.71 0.94,0 1.71,0.77 1.71,1.71 0,0.94 -0.77,1.71 -1.71,1.71 -0.94,0 -1.71,-0.77 -1.71,-1.71 z m -0.77,-9.41 c 0.94,0 1.71,0.77 1.71,1.71 0,0.94 -0.77,1.71 -1.71,1.71 -0.94,0 -1.71,-0.77 -1.71,-1.71 0,-0.94 0.77,-1.71 1.71,-1.71 z m 4.79,-3 c 0,-0.94 0.77,-1.71 1.71,-1.71 0.95,0 1.72,0.77 1.72,1.71 0,0.95 -0.77,1.72 -1.72,1.72 -0.94,0 -1.71,-0.77 -1.71,-1.72 z m 5.95,5.14 -2.1,0.68 c -0.34,-0.68 -1.02,-1.19 -1.79,-1.32 v -2.14 c 0.55,-0.09 1.02,-0.34 1.37,-0.73 l 2.73,2.01 c -0.17,0.34 -0.29,0.73 -0.29,1.11 0.04,0.13 0.04,0.26 0.08,0.39 z m -2.48,1.71 c 0,0.94 -0.77,1.71 -1.71,1.71 -0.94,0 -1.71,-0.77 -1.71,-1.71 0,-0.94 0.77,-1.71 1.71,-1.71 0.94,0 1.71,0.73 1.71,1.71 z m -2.05,-4.49 v 2.14 c -0.82,0.13 -1.5,0.6 -1.8,1.32 l -2.1,-0.68 c 0.04,-0.13 0.04,-0.26 0.04,-0.43 0,-0.38 -0.08,-0.77 -0.3,-1.11 l 2.74,-2.01 c 0.39,0.43 0.86,0.68 1.42,0.77 z m -4.07,3.38 2.1,0.68 c -0.05,0.13 -0.05,0.26 -0.05,0.43 0,0.68 0.3,1.28 0.73,1.71 l -1.28,1.8 c -0.34,-0.17 -0.73,-0.3 -1.11,-0.3 -0.13,0 -0.3,0 -0.43,0.04 l -1.03,-3.21 c 0.43,-0.25 0.81,-0.64 1.07,-1.15 z m 8.43,4.32 c -0.39,0 -0.77,0.09 -1.11,0.3 l -1.29,-1.8 c 0.47,-0.43 0.73,-1.03 0.73,-1.71 0,-0.13 0,-0.3 -0.04,-0.43 l 2.09,-0.68 c 0.22,0.47 0.65,0.85 1.12,1.11 l -1.07,3.21 c -0.17,0 -0.3,0 -0.43,0 z m 0.77,-5.31 c 0,-0.94 0.77,-1.71 1.71,-1.71 0.94,0 1.71,0.77 1.71,1.71 0,0.94 -0.77,1.72 -1.71,1.72 -0.94,0 -1.71,-0.78 -1.71,-1.72 z"
   class="st19"
   id="path382" />
					</g>
				</g>
			</g>
		</g>
	</g>
</svg>
